<?xml version="1.0" encoding="utf-8"?>
<!-- Generator: Adobe Illustrator 16.0.0, SVG Export Plug-In . SVG Version: 6.00 Build 0)  -->
<!DOCTYPE svg PUBLIC "-//W3C//DTD SVG 1.0//EN" "http://www.w3.org/TR/2001/REC-SVG-20010904/DTD/svg10.dtd">
<svg version="1.0" id="Layer_1" xmlns="http://www.w3.org/2000/svg" xmlns:xlink="http://www.w3.org/1999/xlink" x="0px" y="0px"
	 width="800px" height="800px" viewBox="0 0 800 800" enable-background="new 0 0 800 800" xml:space="preserve">
<g>
	<g opacity="0.6">
		<g>
			<defs>
				<rect id="SVGID_1_" x="165.42" y="300.95" width="466.889" height="244.097"/>
			</defs>
			<clipPath id="SVGID_2_">
				<use xlink:href="#SVGID_1_"  overflow="visible"/>
			</clipPath>
			<polygon clip-path="url(#SVGID_2_)" fill="#151310" points="398.863,300.95 165.42,407.057 398.863,545.045 632.309,407.057 			
				"/>
		</g>
	</g>
	<g opacity="0.45">
		<g>
			<defs>
				<rect id="SVGID_3_" x="167.697" y="19.718" width="233.445" height="525.329"/>
			</defs>
			<clipPath id="SVGID_4_">
				<use xlink:href="#SVGID_3_"  overflow="visible"/>
			</clipPath>
			<polygon clip-path="url(#SVGID_4_)" fill="#151310" points="167.701,407.053 401.143,545.047 401.143,300.95 401.143,19.714 			
				"/>
		</g>
	</g>
	<g opacity="0.8">
		<g>
			<defs>
				<rect id="SVGID_5_" x="401.143" y="19.718" width="233.438" height="525.329"/>
			</defs>
			<clipPath id="SVGID_6_">
				<use xlink:href="#SVGID_5_"  overflow="visible"/>
			</clipPath>
			<polygon clip-path="url(#SVGID_6_)" fill="#151310" points="401.143,19.718 401.143,300.95 401.143,545.047 634.58,407.053 			
				"/>
		</g>
	</g>
	<g opacity="0.45">
		<g>
			<defs>
				<rect id="SVGID_7_" x="165.42" y="451.318" width="233.443" height="328.963"/>
			</defs>
			<clipPath id="SVGID_8_">
				<use xlink:href="#SVGID_7_"  overflow="visible"/>
			</clipPath>
			<polygon clip-path="url(#SVGID_8_)" fill="#151310" points="165.42,451.324 398.863,780.281 398.863,589.236 			"/>
		</g>
	</g>
	<g opacity="0.8">
		<g>
			<defs>
				<rect id="SVGID_9_" x="398.863" y="451.318" width="233.572" height="328.963"/>
			</defs>
			<clipPath id="SVGID_10_">
				<use xlink:href="#SVGID_9_"  overflow="visible"/>
			</clipPath>
			<polygon clip-path="url(#SVGID_10_)" fill="#151310" points="398.863,589.24 398.863,780.281 632.443,451.324 			"/>
		</g>
	</g>
</g>
</svg>
